<svg id="Capa_1" enable-background="new 0 0 512 512" height="512" viewBox="0 0 512 512" width="512" xmlns="http://www.w3.org/2000/svg"><g><g><g><g><g><path d="m496.994 466.009h-150.994v-30l45-45v-30c0-8.291 6.709-15 15-15h90.994c5.537 0 10.605 3.047 13.213 7.925 2.637 4.878 2.344 10.796-.732 15.396l-24.463 36.68 24.463 36.68c3.076 4.6 3.369 10.518.732 15.396-2.608 4.876-7.676 7.923-13.213 7.923z" fill="#bf283f"/></g></g></g></g><g><path d="m166 466.009h-150.994c-5.537 0-10.605-3.047-13.213-7.925-2.637-4.878-2.344-10.796.732-15.396l24.463-36.68-24.463-36.68c-3.076-4.6-3.369-10.518-.732-15.396 2.607-4.878 7.676-7.925 13.213-7.925h90.994c8.291 0 15 6.709 15 15v30l45 45z" fill="#d9415a"/></g><g><path d="m406 376.009h-60c-8.401 0-15 6.599-15 15v60c0 8.399 6.599 15 15 15 36.301 0 66.599-25.8 73.5-60z" fill="#4d2e2e"/></g><g><path d="m166 376.009h-60l-13.5 30c6.901 34.2 37.2 60 73.5 60 8.401 0 15-6.601 15-15v-60c0-8.401-6.599-15-15-15z" fill="#664747"/></g><g><path d="m406 286.009h-67.2c-10.239 0-16.387 9.537-14.7 17.399l.3 1.501-61.501-32.1c-4.199-2.401-9.6-2.401-13.799 0l-61.501 32.1.3-1.501c1.698-7.913-4.527-17.399-14.7-17.399h-67.199c-8.401 0-15 6.599-15 15v90c0 5.099.601 10.199 1.5 15h327c.899-4.801 1.5-9.901 1.5-15v-90c0-8.401-6.599-15-15-15z" fill="#f26178"/></g><path d="m419.5 406.009c.899-4.801 1.5-9.901 1.5-15v-90c0-8.401-6.599-15-15-15h-67.2c-10.239 0-16.386 9.536-14.7 17.399l.3 1.501-61.501-32.1c-2.098-1.201-4.501-1.8-6.899-1.8v135z" fill="#d9415a"/><path d="m256 211.009-51.603 46.612-35.997-18.412-65.7-63.9c-4.2-3.9-5.4-9.901-3.9-15.601 1.8-5.4 6.599-9.3 12.299-9.901l90.901-13.2 53.227-.199z" fill="#ffcf40"/><path d="m409.3 175.309-65.7 63.9-41.006 16.799-46.594-44.999-.773-74.6 54.773.199 90.901 13.2c5.7.601 10.499 4.501 12.299 9.901 1.499 5.699.3 11.7-3.9 15.6z" fill="#ffaf40"/><g id="Jackpot_1_"><g><path d="m358.9 329.808c1.199 5.7-1.199 11.4-6 14.702-3.747 3.278-10.431 4.151-15.599 1.199l-81.301-42.6v-92.1l87.599 28.2z" fill="#ffcf40"/><path d="m256 211.009v92.1l-81.301 42.599c-5.099 2.699-11.1 2.401-15.599-1.199-4.801-3.301-7.2-9.001-6-14.702l15.3-90.599z" fill="#ffea80"/></g><g><path d="m159.936 104.31-25.049-34.482c-4.863-6.709-3.398-16.084 3.311-20.947 6.68-4.834 16.084-3.428 20.947 3.311l25.049 34.482c4.863 6.709 3.398 16.084-3.311 20.947-6.737 4.886-16.103 3.375-20.947-3.311z" fill="#ffea80"/></g><g><path d="m336.918 108.338c-6.592-4.995-7.91-14.399-2.93-21.006l26.748-35.361c4.98-6.65 14.385-7.939 21.006-2.93 6.592 4.995 7.91 14.399 2.93 21.006l-26.748 35.361c-4.956 6.617-14.373 7.922-21.006 2.93z" fill="#ffcf40"/></g></g><path d="m310 136.608-54 74.401-54-74.401 40.499-82.2c5.099-10.199 21.901-10.199 27.001 0z" fill="#ffea80"/><path d="m310 136.608-40.499-82.2c-2.55-5.099-8.025-7.649-13.5-7.649v164.25z" fill="#ffcf40"/></g></svg>