<?xml version="1.0" encoding="iso-8859-1"?>
<!-- Generator: Adobe Illustrator 19.0.0, SVG Export Plug-In . SVG Version: 6.00 Build 0)  -->
<svg version="1.1" id="Layer_1" xmlns="http://www.w3.org/2000/svg" xmlns:xlink="http://www.w3.org/1999/xlink" x="0px" y="0px"
	 viewBox="0 0 512 512" style="enable-background:new 0 0 512 512;" xml:space="preserve">
<g>
	<g>
		<path d="M99.617,8.057C87.953,0.52,73.943-1.758,60.802,1.344l230.932,230.933l74.846-74.846L99.617,8.057z"/>
	</g>
</g>
<g>
	<g>
		<path d="M32.139,20.116c-6.441,8.563-10.148,19.077-10.148,30.199v411.358c0,11.123,3.708,21.636,10.148,30.199l235.877-235.877
			L32.139,20.116z"/>
	</g>
</g>
<g>
	<g>
		<path d="M464.261,212.087l-67.266-37.637l-81.544,81.544l81.548,81.548l67.273-37.64c16.117-9.03,25.738-25.442,25.738-43.908
			S480.389,221.117,464.261,212.087z"/>
	</g>
</g>
<g>
	<g>
		<path d="M291.733,279.711L60.815,510.629c3.786,0.891,7.639,1.371,11.492,1.371c9.522,0,19.011-2.708,27.31-8.07l266.965-149.372
			L291.733,279.711z"/>
	</g>
</g>
<g>
</g>
<g>
</g>
<g>
</g>
<g>
</g>
<g>
</g>
<g>
</g>
<g>
</g>
<g>
</g>
<g>
</g>
<g>
</g>
<g>
</g>
<g>
</g>
<g>
</g>
<g>
</g>
<g>
</g>
</svg>
